# xmcd
#
# Track frame offsets:
#	150
#	15481
#	26922
#	42921
#	60538
#	75144
#	93247
#	102757
#	117091
#	129437
#	140534
#	156853
#
# Disc length: 2219 seconds
#
# Revision: 2927441353
# Processed by: cddbd v1.5.2PL0 Copyright (c) Steve Scherf et al.
# Submitted via: EZCDAudioConverter 9.0.0.1
#
DISCID=8908a90c
DTITLE=Hank Williams - The Lost Notebooks Of Hank Williams
DYEAR=2011
DGENRE=Country
TTITLE0=Alan Jackson - You've Been Lonesome, Too
TTITLE1=Bob Dylan - The Love That Faded
TTITLE2=Norah Jones - How Many Times Have You Broken My Heart?
TTITLE3=Jack White - You Know That I Know
TTITLE4=Lucinda Williams - I'm So Happy I Found You
TTITLE5=Vince Gill and Rodney Crowell - I Hope You Shed A Million Tears
TTITLE6=Patty Loveless - You're Through Fooling Me
TTITLE7=Levon Helm - You'll Never Again Be Mine
TTITLE8=Holly Williams - Blue Is My Heart
TTITLE9=Jakob Dylan - Oh, Mama, Come Home
TTITLE10=Sheryl Crow - Angel Mine
TTITLE11=Merle Haggard - The Sermon On The Mount
EXTD=
EXTT0=
EXTT1=
EXTT2=
EXTT3=
EXTT4=
EXTT5=
EXTT6=
EXTT7=
EXTT8=
EXTT9=
EXTT10=
EXTT11=
PLAYORDER=
